<?xml version="1.0" standalone="no"?>
<!DOCTYPE svg PUBLIC "-//W3C//DTD SVG 20010904//EN"
 "http://www.w3.org/TR/2001/REC-SVG-20010904/DTD/svg10.dtd">
<svg version="1.0" xmlns="http://www.w3.org/2000/svg"
 width="370.000000pt" height="370.000000pt" viewBox="0 0 370.000000 370.000000"
 preserveAspectRatio="xMidYMid meet">
<metadata>
Created by potrace 1.14, written by Peter Selinger 2001-2017
</metadata>
<g transform="translate(0.000000,370.000000) scale(0.100000,-0.100000)"
fill="#000000" stroke="none">
<path d="M0 3570 c0 -80 4 -130 10 -130 6 0 10 -28 10 -65 0 -51 3 -65 15 -65
20 0 20 -44 -1 -64 -8 -9 -20 -16 -25 -16 -5 0 -9 -290 -9 -736 0 -719 0 -737
21 -805 22 -72 20 -99 -6 -99 -13 0 -15 -25 -15 -184 0 -178 1 -185 21 -191
12 -4 18 -12 15 -21 -7 -18 -1 -18 23 3 11 9 17 21 14 26 -18 29 92 36 175 12
29 -9 59 -26 70 -40 23 -29 34 -31 65 -11 12 8 38 16 57 18 30 3 35 0 38 -20
3 -18 8 -21 23 -17 12 4 21 1 25 -9 9 -23 -15 -48 -38 -40 -27 8 -56 -21 -51
-49 6 -33 -99 -104 -165 -112 -26 -3 -71 -13 -101 -22 -45 -15 -55 -15 -59 -4
-7 20 -57 71 -71 71 -6 0 -11 13 -11 29 0 16 -7 34 -15 41 -13 11 -15 -33 -15
-390 l0 -402 33 7 c17 4 53 16 79 26 29 11 166 34 355 58 496 64 494 64 505
53 5 -5 8 -27 6 -48 -3 -37 -5 -39 -43 -46 -32 -5 -29 -6 16 -3 l56 3 -4 -81
c-3 -45 -9 -86 -14 -91 -4 -5 -109 -24 -231 -42 -558 -81 -723 -106 -727 -110
-2 -2 73 -4 167 -4 138 0 208 6 364 29 273 41 411 61 426 61 8 0 12 -16 12
-45 l0 -45 1265 0 1265 0 1 83 c0 45 4 102 7 127 l7 44 55 -64 c30 -36 65 -79
77 -95 l22 -30 1 253 c0 161 -4 252 -10 252 -5 0 -10 -4 -10 -10 0 -5 -13 -10
-30 -10 -26 0 -30 -3 -30 -29 0 -16 -6 -32 -12 -34 -9 -4 -9 -6 1 -6 11 -1 10
-5 -5 -17 -10 -8 -14 -13 -7 -10 6 4 14 2 18 -4 4 -6 -9 -10 -33 -10 l-40 0
-6 68 c-4 37 -11 99 -16 137 -5 39 -11 96 -14 128 l-6 57 100 0 100 0 0 60 c0
47 -3 60 -15 60 -9 0 -15 9 -16 23 0 20 -1 20 -8 3 -6 -16 -11 -12 -35 28 -25
43 -27 53 -21 108 4 34 13 62 20 64 16 7 13 47 -4 68 -8 9 -11 27 -9 41 3 14
-1 30 -8 36 -19 15 -18 58 1 65 19 8 19 21 0 40 -9 10 -13 24 -9 40 3 13 2 24
-3 24 -6 0 -15 10 -21 23 -10 21 -11 20 -11 -9 -1 -19 -7 -34 -16 -38 -20 -7
-19 -24 1 -22 9 0 19 -5 21 -11 3 -9 -9 -13 -39 -14 -23 -1 -47 0 -53 1 -5 1
-22 3 -37 3 -28 0 -46 30 -78 130 -18 56 4 77 79 77 31 0 73 3 93 6 32 6 37
10 40 38 2 23 8 32 26 34 27 4 27 6 1 103 -12 43 -19 86 -15 96 7 17 9 16 27
-6 19 -23 19 -23 19 -2 0 28 28 27 35 -1 3 -13 12 -66 19 -118 l14 -95 -3 90
c-2 50 -6 107 -10 128 -5 24 -3 37 4 37 8 0 11 45 11 145 l0 145 -74 0 c-41 0
-77 4 -80 9 -3 4 12 22 34 40 29 23 49 31 79 31 l41 0 0 695 0 695 -465 0
-465 0 0 -44 c0 -25 -5 -48 -10 -51 -14 -9 -32 44 -25 72 l5 23 -1226 0 -1227
0 7 -77 c14 -168 18 -318 7 -303 -6 8 -11 33 -11 55 0 22 -4 67 -9 100 -5 33
-13 97 -16 143 -7 78 -8 82 -31 82 -27 0 -27 7 3 -200 29 -207 34 -235 42
-270 21 -79 36 -188 47 -333 6 -76 4 -90 -11 -107 -10 -11 -24 -20 -30 -20 -7
0 -22 -24 -34 -52 -12 -29 -26 -62 -31 -73 -6 -11 -8 -58 -7 -105 3 -70 7 -86
20 -88 10 -2 18 -8 18 -13 3 -20 5 -25 24 -56 11 -18 23 -33 28 -33 4 0 14 15
22 34 8 19 26 44 41 55 18 14 29 36 35 68 5 26 18 57 29 67 19 19 21 19 55 3
20 -9 48 -17 63 -17 16 0 32 -4 38 -8 5 -5 28 -15 52 -22 50 -16 61 -27 74
-77 15 -63 15 -66 -18 -75 -41 -10 -56 -30 -51 -65 4 -27 5 -27 12 -5 4 12 14
22 21 22 17 0 18 -32 2 -48 -9 -9 -5 -12 20 -12 45 0 49 -20 21 -106 -23 -72
-39 -94 -39 -55 0 11 -4 23 -10 26 -5 3 -10 15 -10 26 0 14 -7 19 -29 19 -16
0 -36 3 -44 6 -8 3 -22 -2 -31 -12 -12 -11 -27 -15 -50 -11 -36 6 -56 -6 -56
-35 0 -12 8 -18 23 -18 29 0 54 -19 59 -45 2 -13 15 -24 36 -30 39 -11 41 -22
6 -35 -49 -19 -98 -12 -130 18 -16 16 -36 33 -46 38 -9 5 -38 29 -64 54 -27
25 -51 43 -54 41 -3 -2 -14 14 -26 35 -18 34 -25 39 -52 36 l-32 -2 0 52 c0
29 -3 154 -7 278 -4 124 -7 264 -7 312 -1 82 -6 102 -21 78 -10 -16 -25 -12
-19 5 4 8 1 15 -5 15 -6 0 -11 5 -11 10 0 14 33 12 49 -2 11 -11 12 -9 3 7
-17 34 -34 224 -42 480 -4 132 -8 241 -9 243 0 1 -23 2 -51 2 l-50 0 0 -130z
m1713 -352 c-9 -11 -19 -15 -21 -9 -4 13 20 40 31 34 5 -3 0 -14 -10 -25z
m-101 -50 c-7 -7 -12 -8 -12 -2 0 14 12 26 19 19 2 -3 -1 -11 -7 -17z m-46
-56 c-11 -10 -15 4 -8 28 l7 25 3 -23 c2 -13 1 -26 -2 -30z m-106 -67 c0 -5
-5 -3 -10 5 -5 8 -10 20 -10 25 0 6 5 3 10 -5 5 -8 10 -19 10 -25z m660 -36
c0 -6 -4 -7 -10 -4 -5 3 -10 11 -10 16 0 6 5 7 10 4 6 -3 10 -11 10 -16z m961
-59 c1 -8 1 -21 0 -27 -1 -7 3 -13 9 -13 5 0 10 -5 10 -11 0 -6 7 -17 15 -26
17 -16 18 -103 1 -103 -4 0 2 -8 15 -19 l23 -19 -42 -7 c-42 -7 -50 -19 -43
-73 3 -19 -15 -45 -33 -48 -12 -2 -16 6 -16 27 0 18 -11 39 -30 59 -16 17 -31
38 -31 48 -1 9 -5 4 -9 -13 -6 -25 -8 -26 -9 -7 0 13 -5 21 -10 17 -18 -10
-28 29 -36 132 l-7 103 96 -3 c77 -1 96 -5 97 -17z m-1351 -10 c-20 -13 -33
-13 -25 0 3 6 14 10 23 10 15 0 15 -2 2 -10z m-75 -37 c-8 -7 -19 -13 -26 -13
-7 0 -4 -6 6 -14 17 -12 21 -12 31 2 16 22 41 23 47 1 3 -10 16 -23 30 -28 29
-11 38 -30 46 -95 6 -47 9 -51 56 -77 68 -37 110 -113 126 -224 11 -84 5 -185
-13 -185 -5 0 -7 -7 -4 -16 3 -8 0 -29 -7 -47 -7 -18 -12 -52 -11 -77 2 -64
-17 -133 -45 -162 l-25 -25 -23 23 c-13 13 -27 24 -31 24 -4 0 -15 -18 -24
-40 -12 -28 -23 -40 -37 -40 -11 0 -25 -9 -32 -21 -7 -14 -17 -19 -31 -16 -12
3 -27 -2 -39 -14 -14 -14 -19 -15 -19 -5 0 14 -23 16 -36 3 -4 -4 -14 -1 -22
6 -12 9 -16 9 -19 0 -5 -14 -42 -17 -59 -5 -5 4 -20 23 -32 44 -12 20 -29 39
-37 42 -9 3 -15 19 -15 41 0 28 4 35 20 35 11 0 20 -6 20 -12 1 -7 9 -3 20 10
10 12 33 25 52 29 18 3 47 13 63 22 17 9 44 17 60 18 17 1 47 5 68 9 29 5 43
2 57 -11 26 -23 26 -4 2 45 -16 31 -22 35 -55 34 -46 -2 -72 -21 -56 -40 9
-11 6 -14 -17 -15 -16 -1 -35 -1 -41 0 -8 1 -10 -5 -7 -14 4 -10 2 -14 -8 -10
-8 3 -32 0 -53 -8 -22 -7 -49 -13 -60 -13 -11 1 -23 -3 -27 -9 -4 -5 -8 0 -8
12 0 12 6 26 13 30 30 19 39 41 26 62 -11 17 -10 23 5 40 11 12 31 22 45 22
25 2 25 2 3 6 -14 3 -32 -3 -42 -12 -10 -9 -31 -15 -47 -14 -29 3 -53 -6 -53
-21 0 -4 8 -6 18 -4 9 2 23 0 31 -5 11 -7 10 -15 -9 -46 -12 -20 -33 -41 -46
-45 -19 -8 -24 -17 -24 -45 0 -20 7 -49 15 -65 9 -17 13 -30 9 -30 -15 0 -88
88 -111 134 -27 54 -103 271 -103 296 0 8 15 -1 36 -23 35 -36 64 -48 64 -26
0 5 4 7 10 4 6 -3 7 1 4 9 -3 9 -10 14 -14 11 -4 -3 -12 1 -18 8 -7 8 -6 18 5
32 8 11 17 16 19 10 14 -34 22 -39 48 -27 16 7 26 20 26 32 0 16 -7 20 -34 20
-59 0 -97 -12 -105 -33 -7 -19 -8 -19 -15 -2 -13 35 25 59 101 62 43 2 63 0
54 -6 -11 -7 -9 -10 9 -13 13 -1 26 -9 28 -17 3 -10 0 -12 -11 -8 -11 4 -14 2
-10 -8 3 -8 9 -13 13 -10 5 3 11 -1 13 -7 3 -7 6 6 6 29 1 58 -37 86 -118 85
-84 -1 -94 -4 -113 -37 l-17 -30 -2 25 c-1 14 -3 72 -4 130 -1 95 1 108 22
136 13 17 42 39 66 49 23 10 86 38 140 62 54 24 112 46 130 50 18 3 37 10 44
15 7 6 19 5 32 -1 28 -15 33 -14 26 8 -5 15 -2 18 13 14 12 -3 22 2 26 13 6
15 9 16 16 5 5 -9 3 -19 -5 -28z m522 -75 c-3 -8 -6 -5 -6 6 -1 11 2 17 5 13
3 -3 4 -12 1 -19z m-2051 1 c3 -6 2 -15 -3 -20 -5 -5 -14 0 -21 11 -10 17 -10
20 2 20 8 0 18 -5 22 -11z m2061 -51 c-3 -7 -5 -2 -5 12 0 14 2 19 5 13 2 -7
2 -19 0 -25z m1272 -145 c1 -30 -2 -33 -26 -33 -17 0 -43 -13 -63 -30 -39 -34
-70 -39 -71 -12 0 9 -2 44 -5 77 -4 55 -2 63 21 85 21 20 28 22 49 12 19 -9
27 -8 36 4 7 8 19 14 26 14 8 0 15 6 15 13 2 17 17 -90 18 -130z m-532 5 c-3
-8 -6 -5 -6 6 -1 11 2 17 5 13 3 -3 4 -12 1 -19z m-780 -36 c30 -36 31 -118 1
-209 -39 -125 -87 -139 -102 -32 -3 19 -12 59 -21 89 -23 81 -20 110 16 153
26 32 36 37 58 32 14 -3 36 -18 48 -33z m800 -79 c-3 -10 -5 -4 -5 12 0 17 2
24 5 18 2 -7 2 -21 0 -30z m-486 -64 c18 -33 45 -188 41 -231 -5 -58 -34 -84
-73 -64 -22 10 -24 19 -27 91 -2 51 3 107 14 153 16 69 28 84 45 51z m932
-196 c7 -37 -9 -55 -47 -51 -26 3 -31 7 -28 27 3 33 20 51 47 51 17 0 24 -7
28 -27z m-1289 -30 c7 -39 23 -93 37 -128 14 -36 23 -70 20 -79 -1 -5 5 -4 13
3 23 20 39 -22 45 -119 l5 -85 12 40 c7 22 13 65 13 96 1 59 8 71 54 88 38 15
43 -3 29 -99 -21 -144 -53 -252 -102 -345 -28 -52 -51 -111 -55 -139 -6 -41
-18 -63 -83 -142 -42 -52 -79 -94 -83 -94 -8 0 -130 128 -155 163 -17 24 -23
27 -44 19 -31 -12 -86 -4 -101 14 -12 15 -3 54 13 54 6 0 -4 10 -23 23 -32 22
-36 22 -56 8 -12 -9 -23 -20 -23 -25 0 -6 5 -5 12 2 21 21 30 13 26 -23 -2
-19 -1 -35 3 -35 4 0 7 -10 7 -22 -1 -13 2 -40 6 -60 8 -42 -6 -52 -24 -18 -6
11 -15 18 -20 15 -6 -3 -7 0 -4 8 3 8 0 18 -7 23 -8 5 -10 3 -4 -7 5 -8 4 -11
-1 -6 -5 5 -9 16 -9 25 0 9 -5 16 -11 15 -21 -4 -47 104 -40 162 7 64 15 87
27 79 5 -3 12 1 15 9 4 11 16 4 47 -24 43 -41 60 -49 51 -24 -3 8 5 28 18 45
67 88 86 108 92 103 3 -4 6 1 6 10 0 10 6 14 14 11 8 -3 17 -1 21 5 3 6 15 11
25 11 10 0 20 3 22 8 2 4 20 20 41 35 20 16 37 37 37 48 0 10 4 19 9 19 9 0
78 143 98 205 15 48 17 104 3 139 -7 20 -6 26 4 26 8 0 17 -16 20 -37z m1454
-38 c15 -15 22 -31 18 -41 -6 -15 -8 -16 -24 0 -10 9 -25 16 -32 16 -28 0
-120 34 -109 41 6 3 36 7 66 8 47 1 60 -3 81 -24z m-1572 -10 c3 -14 3 -33 0
-42 -6 -15 -8 -15 -16 -3 -13 20 -13 70 0 70 5 0 12 -11 16 -25z m1648 -81 c9
-8 16 -25 16 -36 0 -21 0 -21 -25 2 -25 23 -33 50 -16 50 5 0 17 -7 25 -16z
m-464 -9 c-7 -9 -15 -13 -17 -11 -7 7 7 26 19 26 6 0 6 -6 -2 -15z m-2880 -71
c0 -8 -4 -12 -10 -9 -5 3 -10 10 -10 16 0 5 5 9 10 9 6 0 10 -7 10 -16z m3099
-25 c2 -17 -51 -62 -80 -68 -19 -4 -33 -11 -31 -16 2 -6 9 -9 17 -7 11 2 11
-2 2 -23 -7 -14 -15 -25 -19 -25 -12 0 -27 -64 -24 -102 4 -61 -7 -67 -56 -31
-32 23 -43 38 -45 59 -1 16 -4 59 -7 95 -6 64 -5 66 24 87 30 23 124 47 141
36 5 -3 9 -1 9 5 0 5 12 14 28 19 26 8 38 0 41 -29z m-826 -13 c27 -23 39 -54
15 -40 -9 5 -8 2 1 -9 8 -10 12 -20 9 -22 -7 -7 -108 36 -108 45 0 5 -19 11
-42 15 -41 7 -41 8 -17 21 40 22 110 18 142 -10z m435 -28 c14 -14 16 -32 2
-23 -5 3 -7 0 -4 -9 6 -15 33 -11 45 7 4 5 9 -3 13 -18 4 -15 3 -32 -2 -38 -6
-7 -13 -27 -17 -44 -6 -29 -11 -33 -38 -33 -28 0 -82 11 -125 25 -9 3 0 22 28
59 22 31 40 59 40 65 0 20 41 26 58 9z m522 -79 c0 -5 -4 -9 -10 -9 -5 0 -10
7 -10 16 0 8 5 12 10 9 6 -3 10 -10 10 -16z m-1626 -44 c-4 -8 -7 -15 -9 -15
-2 0 -5 7 -9 15 -3 9 0 15 9 15 9 0 12 -6 9 -15z m-39 -35 c-28 -12 -37 -12
-30 0 3 6 16 10 28 9 21 0 21 -1 2 -9z m1545 -50 c0 -10 -4 -21 -9 -24 -10 -7
-20 23 -14 42 6 17 23 4 23 -18z m-20 -86 c0 -17 -22 -14 -28 4 -2 7 3 12 12
12 9 0 16 -7 16 -16z m-1230 -919 l-1 -70 -82 85 c-176 183 -298 334 -343 421
-13 27 -21 49 -18 49 4 0 0 8 -8 18 -66 76 5 11 211 -193 l241 -240 0 -70z
m192 228 c28 -25 23 -70 -12 -104 -23 -23 -35 -29 -52 -24 -33 10 -47 26 -54
60 -12 65 69 112 118 68z m-1435 -476 c3 -4 -25 -7 -63 -6 -44 0 -62 3 -49 8
23 9 102 8 112 -2z m-320 -53 c-3 -3 -12 -4 -19 -1 -8 3 -5 6 6 6 11 1 17 -2
13 -5z"/>
<path d="M1620 2616 c-14 -7 -47 -23 -73 -35 -49 -22 -67 -45 -49 -63 10 -10
83 25 122 58 8 7 41 14 73 16 56 3 77 11 60 21 -21 13 -110 15 -133 3z"/>
<path d="M1694 2539 c-3 -6 -21 -9 -39 -7 -20 2 -31 0 -28 -6 4 -5 -3 -7 -17
-3 -16 4 -30 -2 -48 -20 -17 -17 -22 -28 -14 -31 7 -2 12 -10 12 -18 0 -7 6
-11 14 -8 8 3 13 11 10 18 -3 7 4 20 14 29 18 16 20 16 36 -2 19 -21 43 -18
62 7 12 16 38 7 29 -9 -9 -14 11 -11 23 4 18 21 3 57 -24 57 -12 0 -26 -5 -30
-11z"/>
<path d="M1470 2500 c0 -5 5 -10 11 -10 5 0 7 5 4 10 -3 6 -8 10 -11 10 -2 0
-4 -4 -4 -10z"/>
<path d="M1568 2223 c6 -2 18 -2 25 0 6 3 1 5 -13 5 -14 0 -19 -2 -12 -5z"/>
<path d="M1564 2158 c-7 -11 -1 -19 18 -22 7 -1 19 -5 26 -9 12 -8 32 -1 32
11 0 12 -70 30 -76 20z"/>
<path d="M1513 2141 c1 -12 6 -20 12 -18 14 5 13 29 -2 34 -7 3 -11 -4 -10
-16z"/>
<path d="M1530 2002 c0 -5 7 -15 15 -22 8 -7 15 -19 15 -27 0 -10 6 -13 16 -9
9 3 19 6 24 6 5 0 5 12 1 28 -6 21 -14 28 -39 30 -18 2 -32 -1 -32 -6z"/>
<path d="M2098 2603 c7 -3 16 -2 19 1 4 3 -2 6 -13 5 -11 0 -14 -3 -6 -6z"/>
<path d="M2180 1993 c0 -12 5 -25 10 -28 13 -8 13 15 0 35 -8 12 -10 11 -10
-7z"/>
<path d="M1810 1461 c0 -6 4 -13 10 -16 6 -3 7 1 4 9 -7 18 -14 21 -14 7z"/>
<path d="M3301 1954 c0 -11 3 -14 6 -6 3 7 2 16 -1 19 -3 4 -6 -2 -5 -13z"/>
<path d="M157 3658 c2 -24 9 -52 13 -63 5 -11 14 -69 20 -130 5 -60 14 -123
19 -140 8 -25 9 -20 10 35 0 36 -4 97 -9 135 -5 39 -10 100 -12 138 -2 61 -4
67 -24 67 -20 0 -22 -4 -17 -42z"/>
<path d="M200 3270 c0 -5 5 -10 10 -10 6 0 10 5 10 10 0 6 -4 10 -10 10 -5 0
-10 -4 -10 -10z"/>
<path d="M205 3173 c4 -10 7 -29 7 -43 -1 -21 0 -22 7 -6 9 24 2 66 -11 66 -6
0 -7 -8 -3 -17z"/>
<path d="M490 2390 c0 -5 -11 -12 -25 -16 -14 -3 -25 -12 -25 -20 0 -17 32
-18 48 -2 9 9 12 6 12 -15 0 -53 52 -47 79 8 12 25 12 30 -5 42 -21 15 -84 18
-84 3z"/>
<path d="M3582 1578 c6 -18 28 -21 28 -4 0 9 -7 16 -16 16 -9 0 -14 -5 -12
-12z"/>
<path d="M3477 1510 c7 -25 23 -37 23 -17 0 8 -6 20 -14 26 -12 10 -13 8 -9
-9z"/>
<path d="M3687 1397 c-11 -29 -9 -43 4 -30 6 6 9 19 7 29 -3 18 -4 18 -11 1z"/>
<path d="M3670 1280 c0 -6 7 -10 15 -10 8 0 15 2 15 4 0 2 -7 6 -15 10 -8 3
-15 1 -15 -4z"/>
<path d="M3684 1196 c-3 -8 -1 -23 5 -33 9 -15 10 -13 11 15 0 34 -7 42 -16
18z"/>
<path d="M195 1180 c3 -5 11 -10 16 -10 6 0 7 5 4 10 -3 6 -11 10 -16 10 -6 0
-7 -4 -4 -10z"/>
<path d="M236 1161 c5 -5 20 -12 34 -16 24 -7 24 -7 5 9 -21 16 -56 23 -39 7z"/>
<path d="M3650 1074 c0 -48 2 -55 15 -44 8 6 19 9 25 5 23 -14 10 52 -15 73
l-25 22 0 -56z"/>
<path d="M3651 730 l-23 -20 26 0 c30 0 36 -26 9 -33 -11 -3 -7 -5 10 -6 25
-1 27 2 27 39 0 45 -12 50 -49 20z"/>
<path d="M780 309 c-23 -5 -10 -5 35 -2 39 3 72 7 74 9 7 7 -72 2 -109 -7z"/>
<path d="M693 293 c9 -2 25 -2 35 0 9 3 1 5 -18 5 -19 0 -27 -2 -17 -5z"/>
<path d="M613 283 c9 -2 23 -2 30 0 6 3 -1 5 -18 5 -16 0 -22 -2 -12 -5z"/>
<path d="M835 280 c-19 -8 -19 -9 2 -9 12 -1 25 4 28 9 7 12 -2 12 -30 0z"/>
<path d="M898 283 c7 -3 16 -2 19 1 4 3 -2 6 -13 5 -11 0 -14 -3 -6 -6z"/>
<path d="M558 243 c12 -2 30 -2 40 0 9 3 -1 5 -23 4 -22 0 -30 -2 -17 -4z"/>
<path d="M463 233 c9 -2 25 -2 35 0 9 3 1 5 -18 5 -19 0 -27 -2 -17 -5z"/>
<path d="M398 223 c6 -2 18 -2 25 0 6 3 1 5 -13 5 -14 0 -19 -2 -12 -5z"/>
<path d="M313 213 c9 -2 23 -2 30 0 6 3 -1 5 -18 5 -16 0 -22 -2 -12 -5z"/>
<path d="M238 203 c6 -2 18 -2 25 0 6 3 1 5 -13 5 -14 0 -19 -2 -12 -5z"/>
<path d="M100 190 c-34 -7 -34 -7 -5 -8 17 0 44 4 60 8 27 7 27 8 5 8 -14 -1
-41 -4 -60 -8z"/>
<path d="M23 173 c9 -2 23 -2 30 0 6 3 -1 5 -18 5 -17 0 -22 -2 -12 -5z"/>
</g>
</svg>
